<?xml version="1.0" encoding="UTF-8" standalone="no"?>
<svg
   viewBox="0 0 79 70"
   width="79"
   height="70"
   version="1.1"
   id="svg16"
   sodipodi:docname="logo_icon_only.svg"
   inkscape:version="1.2.2 (1:1.2.2+202212051550+b0a8486541)"
   xmlns:inkscape="http://www.inkscape.org/namespaces/inkscape"
   xmlns:sodipodi="http://sodipodi.sourceforge.net/DTD/sodipodi-0.dtd"
   xmlns="http://www.w3.org/2000/svg"
   xmlns:svg="http://www.w3.org/2000/svg">
  <defs
     id="defs20" />
  <sodipodi:namedview
     id="namedview18"
     pagecolor="#ffffff"
     bordercolor="#666666"
     borderopacity="1.0"
     inkscape:showpageshadow="2"
     inkscape:pageopacity="0.0"
     inkscape:pagecheckerboard="0"
     inkscape:deskcolor="#d1d1d1"
     showgrid="false"
     inkscape:zoom="12.142857"
     inkscape:cx="39.529412"
     inkscape:cy="50.441176"
     inkscape:window-width="1856"
     inkscape:window-height="1016"
     inkscape:window-x="64"
     inkscape:window-y="27"
     inkscape:window-maximized="1"
     inkscape:current-layer="svg16" />
  <g
     fill="#952723"
     color="#952723"
     transform="matrix(0.68111933,0,0,0.68111933,8.0652901,0.41525453)"
     id="g12">
    <svg
       width="100"
       height="100"
       x="0.0"
       y="0.0"
       viewBox="0 0 100 100"
       version="1.1"
       id="svg10">
      <ellipse
         cx="50"
         cy="19.724001"
         rx="30"
         ry="11.262"
         id="ellipse2" />
      <path
         d="M 20,39.57 V 24.524 c 0,0 0.093,11.169 30,11.169 29.908,0 30,-11.169 30,-11.169 v 15.231 c 0,0 -0.186,11.906 -30.092,11.906 C 20,51.661 20,39.57 20,39.57 Z"
         id="path4" />
      <path
         d="M 20,59.784 V 44.739 c 0,0 0.093,11.168 30,11.168 29.908,0 30,-11.168 30,-11.168 v 15.23 c 0,0 -0.186,11.908 -30.092,11.908 C 20,71.877 20,59.784 20,59.784 Z"
         id="path6" />
      <path
         d="M 20,79.446 V 64.398 c 0,0 0.093,11.171 30,11.171 29.908,0 30,-11.171 30,-11.171 V 79.63 c 0,0 -0.186,11.906 -30.092,11.906 C 20,91.537 20,79.446 20,79.446 Z"
         id="path8" />
    </svg>
  </g>
</svg>
