<?xml version="1.0" encoding="UTF-8" standalone="no"?>
<svg
   viewBox="0 0 79 70"
   width="79"
   height="70"
   version="1.1"
   id="svg16"
   sodipodi:docname="logo.svg"
   inkscape:version="1.2.2 (1:1.2.2+202212051550+b0a8486541)"
   xmlns:inkscape="http://www.inkscape.org/namespaces/inkscape"
   xmlns:sodipodi="http://sodipodi.sourceforge.net/DTD/sodipodi-0.dtd"
   xmlns="http://www.w3.org/2000/svg"
   xmlns:svg="http://www.w3.org/2000/svg">
  <defs
     id="defs20" />
  <sodipodi:namedview
     id="namedview18"
     pagecolor="#ffffff"
     bordercolor="#666666"
     borderopacity="1.0"
     inkscape:showpageshadow="2"
     inkscape:pageopacity="0.0"
     inkscape:pagecheckerboard="0"
     inkscape:deskcolor="#d1d1d1"
     showgrid="false"
     inkscape:zoom="12.142857"
     inkscape:cx="23.717647"
     inkscape:cy="35.041176"
     inkscape:window-width="1856"
     inkscape:window-height="1016"
     inkscape:window-x="64"
     inkscape:window-y="27"
     inkscape:window-maximized="1"
     inkscape:current-layer="svg16" />
  <g
     fill="#952723"
     color="#952723"
     transform="translate(17.06 0) scale(0.44) "
     id="g12">
    <svg
       width="100.0"
       height="100.0"
       x="0.0"
       y="0.0"
       viewBox="0 0 100 100"
       version="1.1"
       id="svg10">
      <ellipse
         cx="50"
         cy="19.724"
         rx="30"
         ry="11.262"
         id="ellipse2" />
      <path
         d="M20,39.57V24.524c0,0,0.093,11.169,30,11.169c29.908,0,30-11.169,30-11.169v15.231c0,0-0.186,11.906-30.092,11.906  C20,51.661,20,39.57,20,39.57z"
         id="path4" />
      <path
         d="M20,59.784V44.739c0,0,0.093,11.168,30,11.168c29.908,0,30-11.168,30-11.168v15.23c0,0-0.186,11.908-30.092,11.908  C20,71.877,20,59.784,20,59.784z"
         id="path6" />
      <path
         d="M20,79.446V64.398c0,0,0.093,11.171,30,11.171c29.908,0,30-11.171,30-11.171v15.232c0,0-0.186,11.906-30.092,11.906  C20,91.537,20,79.446,20,79.446z"
         id="path8" />
    </svg>
  </g>
  <path
     fill="#000000"
     fill-rule="nonzero"
     d="M4.70 17.18L4.70 17.18Q3.41 17.18 2.34 16.52Q1.27 15.86 0.64 14.77Q0 13.68 0 12.36L0 12.36L0 11.26Q0 11.14 0.12 11.14L0.12 11.14L2.81 11.14Q2.90 11.14 2.90 11.26L2.90 11.26L2.90 12.36Q2.90 13.15 3.43 13.72Q3.96 14.28 4.70 14.28L4.70 14.28Q5.45 14.28 5.98 13.70Q6.50 13.13 6.50 12.36L6.50 12.36Q6.50 11.47 5.35 10.82L5.35 10.82Q4.97 10.61 4.15 10.15Q3.34 9.70 2.62 9.29L2.62 9.29Q1.30 8.52 0.66 7.36Q0.02 6.19 0.02 4.73L0.02 4.73Q0.02 3.38 0.67 2.32Q1.32 1.25 2.39 0.62Q3.46 0 4.70 0L4.70 0Q5.98 0 7.04 0.64Q8.11 1.27 8.75 2.34Q9.38 3.41 9.38 4.73L9.38 4.73L9.38 6.70Q9.38 6.79 9.29 6.79L9.29 6.79L6.60 6.79Q6.50 6.79 6.50 6.70L6.50 6.70L6.48 4.73Q6.48 3.89 5.95 3.36Q5.42 2.83 4.70 2.83L4.70 2.83Q3.96 2.83 3.43 3.40Q2.90 3.96 2.90 4.73L2.90 4.73Q2.90 5.52 3.24 6.05Q3.58 6.58 4.46 7.06L4.46 7.06Q4.58 7.13 4.93 7.31Q5.28 7.49 5.69 7.72Q6.10 7.94 6.42 8.11Q6.74 8.28 6.82 8.33L6.82 8.33Q8.02 9 8.71 9.97Q9.41 10.94 9.41 12.36L9.41 12.36Q9.41 13.73 8.77 14.82Q8.14 15.91 7.07 16.55Q6 17.18 4.70 17.18ZM13.92 16.94L11.21 16.94Q11.09 16.94 11.09 16.82L11.09 16.82L11.11 0.34Q11.11 0.24 11.21 0.24L11.21 0.24L13.90 0.24Q13.99 0.24 13.99 0.34L13.99 0.34L14.02 16.82Q14.02 16.94 13.92 16.94L13.92 16.94ZM20.21 17.18L20.21 17.18Q18.91 17.18 17.84 16.52Q16.78 15.86 16.14 14.77Q15.50 13.68 15.50 12.36L15.50 12.36L15.50 11.26Q15.50 11.14 15.62 11.14L15.62 11.14L18.31 11.14Q18.41 11.14 18.41 11.26L18.41 11.26L18.41 12.36Q18.41 13.15 18.94 13.72Q19.46 14.28 20.21 14.28L20.21 14.28Q20.95 14.28 21.48 13.70Q22.01 13.13 22.01 12.36L22.01 12.36Q22.01 11.47 20.86 10.82L20.86 10.82Q20.47 10.61 19.66 10.15Q18.84 9.70 18.12 9.29L18.12 9.29Q16.80 8.52 16.16 7.36Q15.53 6.19 15.53 4.73L15.53 4.73Q15.53 3.38 16.18 2.32Q16.82 1.25 17.89 0.62Q18.96 0 20.21 0L20.21 0Q21.48 0 22.55 0.64Q23.62 1.27 24.25 2.34Q24.89 3.41 24.89 4.73L24.89 4.73L24.89 6.70Q24.89 6.79 24.79 6.79L24.79 6.79L22.10 6.79Q22.01 6.79 22.01 6.70L22.01 6.70L21.98 4.73Q21.98 3.89 21.46 3.36Q20.93 2.83 20.21 2.83L20.21 2.83Q19.46 2.83 18.94 3.40Q18.41 3.96 18.41 4.73L18.41 4.73Q18.41 5.52 18.74 6.05Q19.08 6.58 19.97 7.06L19.97 7.06Q20.09 7.13 20.44 7.31Q20.78 7.49 21.19 7.72Q21.60 7.94 21.92 8.11Q22.25 8.28 22.32 8.33L22.32 8.33Q23.52 9 24.22 9.97Q24.91 10.94 24.91 12.36L24.91 12.36Q24.91 13.73 24.28 14.82Q23.64 15.91 22.57 16.55Q21.50 17.18 20.21 17.18ZM31.10 16.94L28.34 16.94Q28.27 16.94 28.27 16.85L28.27 16.85L28.30 10.03L25.08 0.34Q25.06 0.24 25.15 0.24L25.15 0.24L27.82 0.24Q27.94 0.24 27.96 0.34L27.96 0.34L29.74 6.79L31.54 0.34Q31.56 0.24 31.66 0.24L31.66 0.24L34.34 0.24Q34.44 0.24 34.42 0.34L34.42 0.34L31.18 9.94L31.20 16.85Q31.20 16.94 31.10 16.94L31.10 16.94ZM38.54 16.94L35.86 16.94Q35.74 16.94 35.74 16.82L35.74 16.82L35.78 0.34Q35.78 0.24 35.88 0.24L35.88 0.24L40.49 0.24Q42.70 0.24 43.98 1.58Q45.26 2.93 45.26 5.23L45.26 5.23Q45.26 6.94 44.59 8.18Q43.92 9.43 42.84 10.10Q41.76 10.78 40.49 10.78L40.49 10.78L38.66 10.78L38.66 16.82Q38.66 16.94 38.54 16.94L38.54 16.94ZM38.66 3.12L38.66 7.87L40.49 7.87Q41.26 7.87 41.82 7.14Q42.38 6.41 42.38 5.23L42.38 5.23Q42.38 4.30 41.88 3.70Q41.38 3.10 40.49 3.10L40.49 3.10L38.66 3.12ZM49.70 16.94L46.99 16.94Q46.90 16.94 46.90 16.82L46.90 16.82L46.92 0.34Q46.92 0.24 47.04 0.24L47.04 0.24L49.70 0.24Q49.82 0.24 49.82 0.34L49.82 0.34L49.80 6.86L53.40 6.86L53.40 0.34Q53.40 0.24 53.50 0.24L53.50 0.24L56.16 0.24Q56.28 0.24 56.28 0.34L56.28 0.34L56.33 16.82Q56.33 16.94 56.21 16.94L56.21 16.94L53.52 16.94Q53.40 16.94 53.40 16.82L53.40 16.82L53.40 9.77L49.80 9.77L49.80 16.82Q49.80 16.94 49.70 16.94L49.70 16.94ZM62.71 17.18L62.71 17.18Q61.44 17.18 60.36 16.52Q59.28 15.86 58.64 14.76Q58.01 13.66 58.01 12.34L58.01 12.34L58.06 0.34Q58.06 0.24 58.15 0.24L58.15 0.24L60.84 0.24Q60.94 0.24 60.94 0.34L60.94 0.34L60.94 12.34Q60.94 13.15 61.45 13.72Q61.97 14.28 62.71 14.28L62.71 14.28Q63.48 14.28 64.00 13.72Q64.51 13.15 64.51 12.34L64.51 12.34L64.51 0.34Q64.51 0.24 64.61 0.24L64.61 0.24L67.30 0.24Q67.39 0.24 67.39 0.34L67.39 0.34L67.44 12.34Q67.44 13.68 66.80 14.78Q66.17 15.89 65.10 16.54Q64.03 17.18 62.71 17.18ZM73.42 17.18L73.42 17.18Q72.12 17.18 71.05 16.52Q69.98 15.86 69.35 14.77Q68.71 13.68 68.71 12.36L68.71 12.36L68.71 11.26Q68.71 11.14 68.83 11.14L68.83 11.14L71.52 11.14Q71.62 11.14 71.62 11.26L71.62 11.26L71.62 12.36Q71.62 13.15 72.14 13.72Q72.67 14.28 73.42 14.28L73.42 14.28Q74.16 14.28 74.69 13.70Q75.22 13.13 75.22 12.36L75.22 12.36Q75.22 11.47 74.06 10.82L74.06 10.82Q73.68 10.61 72.86 10.15Q72.05 9.70 71.33 9.29L71.33 9.29Q70.01 8.52 69.37 7.36Q68.74 6.19 68.74 4.73L68.74 4.73Q68.74 3.38 69.38 2.32Q70.03 1.25 71.10 0.62Q72.17 0 73.42 0L73.42 0Q74.69 0 75.76 0.64Q76.82 1.27 77.46 2.34Q78.10 3.41 78.10 4.73L78.10 4.73L78.10 6.70Q78.10 6.79 78.00 6.79L78.00 6.79L75.31 6.79Q75.22 6.79 75.22 6.70L75.22 6.70L75.19 4.73Q75.19 3.89 74.66 3.36Q74.14 2.83 73.42 2.83L73.42 2.83Q72.67 2.83 72.14 3.40Q71.62 3.96 71.62 4.73L71.62 4.73Q71.62 5.52 71.95 6.05Q72.29 6.58 73.18 7.06L73.18 7.06Q73.30 7.13 73.64 7.31Q73.99 7.49 74.40 7.72Q74.81 7.94 75.13 8.11Q75.46 8.28 75.53 8.33L75.53 8.33Q76.73 9 77.42 9.97Q78.12 10.94 78.12 12.36L78.12 12.36Q78.12 13.73 77.48 14.82Q76.85 15.91 75.78 16.55Q74.71 17.18 73.42 17.18Z"
     transform="translate(0, 52)"
     id="path14"
     style="fill:#ffffff;fill-opacity:1" />
</svg>
